<svg width="97" height="32" viewBox="0 0 97 32" fill="none" xmlns="http://www.w3.org/2000/svg">
<path fill-rule="evenodd" clip-rule="evenodd" d="M7.11242 2.69546C9.74388 0.937613 12.8375 -0.000416582 16.0021 1.38786e-07C18.1031 0.000138661 20.1835 0.414101 22.1246 1.21825C24.0656 2.0224 25.8292 3.20099 27.3148 4.68673C28.8003 6.17246 29.9787 7.93625 30.7826 9.87739C31.5865 11.8185 32.0001 13.899 32 16C32 19.1646 31.0616 22.2581 29.3034 24.8893C27.5452 27.5206 25.0462 29.5713 22.1224 30.7823C19.1987 31.9932 15.9815 32.3099 12.8778 31.6924C9.77403 31.0749 6.92311 29.5508 4.68555 27.313C2.448 25.0751 0.924311 22.224 0.307186 19.1201C-0.30994 16.0163 0.00721433 12.7992 1.21854 9.8756C2.42986 6.95202 4.48095 4.45331 7.11242 2.69546ZM8.35145 23.5495C10.4893 23.5495 12.3085 22.9709 13.8091 21.8139C15.3126 20.6554 16.0643 19.2503 16.0643 17.5986C16.0629 15.9659 15.3119 14.5714 13.8112 13.415C12.3106 12.2586 10.4914 11.6804 8.35356 11.6804V13.9451C9.6652 13.9458 10.7858 14.3051 11.7152 15.0231C12.6447 15.7411 13.1094 16.5996 13.1094 17.5986C13.1087 18.6159 12.6433 19.4835 11.7131 20.2015C10.7829 20.9195 9.66239 21.2785 8.35145 21.2785V23.5495ZM8.35356 10.7236H16.0643V8.45261H8.35356V10.7236ZM23.6517 23.5484V8.45261L23.6549 8.45156H21.0088V14.0557H20.9951V23.5484H23.6517ZM44.4666 10.1861L46.8197 17.3162L48.8578 10.1861L51.448 10.1904L48.0337 21.8128H45.944L43.5529 14.981L41.2345 21.8128H39.0742L35.5492 10.1904H38.2364L40.2165 17.2814L42.5876 10.1861H44.4666ZM73.7161 13.8914C73.6993 11.2927 71.872 10.2736 70.4672 10.2557L65.0053 10.203L65.0401 21.7949H67.525L67.4986 17.1771L69.2901 17.1951L71.9078 21.796H74.614L71.9099 17.0897C71.9099 17.0897 73.733 16.3341 73.7161 13.8914ZM69.993 15.5248L67.4986 15.5427L67.4639 12.3286H69.9582C69.9582 12.3286 71.4863 12.4339 71.4863 13.9272C71.4863 15.4204 69.993 15.5248 69.993 15.5248ZM79.4773 10.2293L79.4952 19.6789L85.3439 19.6968L85.3607 21.7865H76.9302L76.9482 10.2125L79.4773 10.2293ZM92.7026 10.2389C89.067 10.2715 87.521 10.2568 87.521 10.2568L87.5389 21.7602H92.9661C92.9661 21.7602 96.882 21.307 96.8999 17.9496L96.9179 14.1727C96.9179 14.1727 96.6544 10.2041 92.7026 10.2389ZM92.3865 19.7231L90.0502 19.7411L90.0154 12.2938C90.0154 12.2938 90.1556 12.2759 92.2105 12.259C94.2654 12.2421 94.3708 14.3139 94.3708 14.3139C94.3708 14.3139 94.4024 15.5606 94.4414 17.6155C94.4762 19.4597 92.3865 19.7231 92.3865 19.7231ZM57.2535 10.1882H57.792C60.2621 10.1882 62.2844 12.1641 62.2844 14.5742V17.4194C62.2844 19.8337 60.2621 21.8138 57.792 21.8149H57.2535C54.7834 21.8149 52.7632 19.839 52.7632 17.4247V14.5794C52.7632 12.1641 54.7834 10.1882 57.2535 10.1882ZM57.6834 19.8822C59.0271 19.8822 59.8111 18.8073 59.8111 17.4932V14.7322C59.8111 13.4171 59.0271 12.3422 57.6834 12.3422H57.4158C56.0722 12.3422 55.2881 13.4171 55.2881 14.7322V17.4932C55.2881 18.8073 56.0722 19.8822 57.4158 19.8822H57.6834Z" fill="#1D2329"/>
</svg>
