<svg width="101" height="32" viewBox="0 0 101 32" fill="none" xmlns="http://www.w3.org/2000/svg">
<path d="M16.918 -3.89652e-05C8.08179 -3.89652e-05 0.917847 7.1639 0.917847 15.9998C0.917847 21.5878 3.78316 26.5067 8.12472 29.3677C9.73377 27.8957 11.1711 26.4131 11.9791 25.2038C12.8313 23.9294 13.666 22.2531 13.2684 20.6715C12.8207 18.8627 11.2074 17.6627 10.93 15.7998C10.7911 14.8692 10.2314 11.9105 15.7633 8.47616C17.9777 7.0999 20.7339 6.18124 23.0806 5.99458C22.9913 6.01458 22.9017 6.03458 22.8126 6.05458C19.7286 6.92924 16.0284 9.03722 15.5887 11.2825C14.9113 14.7732 22.4113 15.0185 23.783 20.1531C24.3459 22.2704 23.8257 25.7438 20.8017 30.7866C20.6433 31.0506 20.458 31.341 20.251 31.6506C27.4886 30.1157 32.9178 23.6918 32.9178 15.9998C32.9178 7.1639 25.7536 -3.89652e-05 16.918 -3.89652e-05Z" fill="#1D2329"/>
<path fill-rule="evenodd" clip-rule="evenodd" d="M65.0445 22.4388C65.9879 22.9692 67.1321 23.189 68.2877 23.1966C71.637 23.3065 74.9067 20.7983 74.13 17.233C73.9936 16.8125 73.8004 16.4412 73.5503 16.1343C73.2889 15.8198 72.982 15.547 72.6334 15.3349C72.2962 15.1151 71.9401 14.9143 71.5764 14.7362C71.3897 14.6478 71.1983 14.5632 71.0066 14.4784C70.5331 14.2689 70.0578 14.0587 69.6479 13.789C69.4092 13.6451 69.2273 13.4708 69.1023 13.2624C68.875 12.9593 68.947 12.444 69.1326 12.1182C69.2235 11.9553 69.3486 11.8189 69.5039 11.7014C69.8563 11.4286 70.3374 11.3187 70.8072 11.3187C71.1369 11.3604 71.4703 11.4362 71.7999 11.5385L71.8416 11.5461C73.0881 11.9439 73.7019 11.3491 73.9974 10.7694L74.4558 9.77292L74.2437 9.65168C74.1755 9.59864 74.0959 9.54939 74.0012 9.50392L73.7549 9.36753C73.2586 9.1402 72.66 8.95834 72.0803 8.88256C69.932 8.55673 67.5072 9.17809 66.2948 11.0649C65.6772 11.8643 65.4272 13.3041 65.7303 14.2247C65.9576 15.0659 66.4956 15.6948 67.1965 16.1381C67.5262 16.3578 67.8747 16.5548 68.2347 16.7178C68.4591 16.832 68.6947 16.9404 68.9302 17.0487C69.3507 17.2421 69.7707 17.4353 70.1253 17.6612C70.3564 17.8203 70.542 18.0022 70.6784 18.2105C71.1596 19.082 70.3412 20.1315 69.4395 20.3057C68.7878 20.5103 67.8293 20.4383 67.2306 20.2565C67.189 20.2489 67.1359 20.2338 67.0715 20.211C66.1243 19.9079 65.1582 20.4724 64.7831 21.359L64.5179 22.0069C64.6656 22.1736 64.7755 22.2683 65.0445 22.4388ZM75.9376 23.2L77.7792 10.1439C77.8345 9.75662 78.0058 9.44162 78.2935 9.1981C78.5921 8.94379 78.9348 8.81651 79.3221 8.81651H81.064L79.2555 21.6407C79.1892 22.0941 78.9847 22.4646 78.6417 22.7521C78.31 23.0506 77.9173 23.2 77.464 23.2H75.9376ZM97.0755 8.80005H99.5639L100.244 23.1836H98.751C98.3419 23.1836 97.9878 23.045 97.6893 22.7686C97.3908 22.4921 97.2303 22.144 97.2082 21.7235L96.7934 13.4618L92.1174 22.3299C91.8406 22.8549 91.2957 23.1836 90.7021 23.1836H90.0082L87.4368 13.1964L84.5169 22.155C84.2073 22.8408 83.7262 23.1836 83.0736 23.1836H81.0995L85.5954 9.41385C85.7723 9.00473 86.0543 8.80005 86.4413 8.80005H89.1455L91.468 17.8582L95.9639 9.46373C96.2406 9.02119 96.6108 8.80005 97.0755 8.80005Z" fill="#1D2329"/>
<path d="M50.3334 11.3692C51.7662 11.3692 53.0894 10.2189 53.2888 8.80005H42.9574C42.065 8.80005 41.241 9.51639 41.1168 10.4001L40.1614 17.1983H46.5274C47.5573 17.2126 48.1907 17.2558 48.4277 17.3278C48.7208 17.4141 48.9405 17.6084 49.087 17.9107C49.2355 18.1986 49.2814 18.544 49.2248 18.947C49.1742 19.3068 49.0425 19.6234 48.8297 19.8969C48.6334 20.156 48.3828 20.3359 48.078 20.4366C47.5926 20.5806 46.914 20.6525 46.0419 20.6525H39.6759L39.3179 23.2H45.6839C47.5297 23.2 48.8932 23.0129 49.7742 22.6387C51.4451 21.9191 52.4109 20.6309 52.6719 18.7743C52.8782 17.3062 52.5263 16.1908 51.6161 15.4279C51.2786 15.1401 50.8491 14.9386 50.3275 14.8234C49.8205 14.7083 49.1164 14.6507 48.2153 14.6507H43.5934L44.0546 11.3692H50.3334Z" fill="#1D2329"/>
<path d="M53.5128 14.17L57.8766 11.8606L56.283 23.2H57.763C58.6554 23.2 59.4794 22.4837 59.6036 21.6L61.4026 8.80005H58.7417C58.4568 8.80005 58.1665 8.87463 57.9002 9.01623L54.8109 10.6591C54.2725 10.9454 53.8918 11.4726 53.8117 12.0429L53.5128 14.17Z" fill="#1D2329"/>
</svg>
